<svg xmlns="http://www.w3.org/2000/svg" xmlns:xlink="http://www.w3.org/1999/xlink" version="1.1" width="256" height="256" viewBox="0 0 256 256" xml:space="preserve">
<g style="stroke: none; stroke-width: 0; stroke-dasharray: none; stroke-linecap: butt; stroke-linejoin: miter; stroke-miterlimit: 10; fill: none; fill-rule: nonzero; opacity: 1;" transform="translate(1.4065934065934016 1.4065934065934016) scale(2.81 2.81)">
	<path d="M 45 90 L 45 90 C 20.147 90 0 69.853 0 45 v 0 C 0 20.147 20.147 0 45 0 h 0 c 24.853 0 45 20.147 45 45 v 0 C 90 69.853 69.853 90 45 90 z" style="stroke: none; stroke-width: 1; stroke-dasharray: none; stroke-linecap: butt; stroke-linejoin: miter; stroke-miterlimit: 10; fill: rgb(0,113,206); fill-rule: nonzero; opacity: 1;" transform=" matrix(1 0 0 1 0 0) " stroke-linecap="round"/>
	<path d="M 45.002 34.393 c 1.514 0 2.788 -0.79 2.954 -1.806 l 1.5 -16.994 c 0 -1.683 -1.981 -3.06 -4.454 -3.06 c -2.486 0 -4.454 1.377 -4.454 3.06 l 1.514 16.994 C 42.22 33.603 43.488 34.393 45.002 34.393" style="stroke: none; stroke-width: 1; stroke-dasharray: none; stroke-linecap: butt; stroke-linejoin: miter; stroke-miterlimit: 10; fill: rgb(255,194,32); fill-rule: nonzero; opacity: 1;" transform=" matrix(1 0 0 1 0 0) " stroke-linecap="round"/>
	<path d="M 35.797 39.71 c 0.75 -1.328 0.707 -2.801 -0.103 -3.459 l -14.007 -9.795 c -1.457 -0.85 -3.638 0.163 -4.886 2.307 c -1.245 2.141 -0.992 4.544 0.435 5.377 l 15.507 7.189 c 0.992 0.372 2.29 -0.319 3.054 -1.633" style="stroke: none; stroke-width: 1; stroke-dasharray: none; stroke-linecap: butt; stroke-linejoin: miter; stroke-miterlimit: 10; fill: rgb(255,194,32); fill-rule: nonzero; opacity: 1;" transform=" matrix(1 0 0 1 0 0) " stroke-linecap="round"/>
	<path d="M 54.205 39.696 c 0.793 1.314 2.091 2.005 3.057 1.653 l 15.507 -7.209 c 1.441 -0.85 1.656 -3.23 0.438 -5.37 c -1.245 -2.144 -3.439 -3.15 -4.892 -2.317 l -14.01 9.785 c -0.777 0.667 -0.833 2.148 -0.083 3.472" style="stroke: none; stroke-width: 1; stroke-dasharray: none; stroke-linecap: butt; stroke-linejoin: miter; stroke-miterlimit: 10; fill: rgb(255,194,32); fill-rule: nonzero; opacity: 1;" transform=" matrix(1 0 0 1 0 0) " stroke-linecap="round"/>
	<path d="M 45.002 55.62 c 1.514 0 2.788 0.79 2.954 1.806 l 1.5 16.994 c 0 1.683 -1.981 3.047 -4.454 3.047 c -2.486 0 -4.454 -1.364 -4.454 -3.047 l 1.514 -16.994 C 42.22 56.41 43.488 55.62 45.002 55.62" style="stroke: none; stroke-width: 1; stroke-dasharray: none; stroke-linecap: butt; stroke-linejoin: miter; stroke-miterlimit: 10; fill: rgb(255,194,32); fill-rule: nonzero; opacity: 1;" transform=" matrix(1 0 0 1 0 0) " stroke-linecap="round"/>
	<path d="M 54.205 50.318 c 0.793 -1.318 2.091 -2.021 3.057 -1.64 l 15.507 7.196 c 1.441 0.833 1.656 3.233 0.438 5.377 c -1.245 2.128 -3.439 3.14 -4.892 2.307 l -14.01 -9.798 c -0.777 -0.661 -0.833 -2.134 -0.083 -3.442" style="stroke: none; stroke-width: 1; stroke-dasharray: none; stroke-linecap: butt; stroke-linejoin: miter; stroke-miterlimit: 10; fill: rgb(255,194,32); fill-rule: nonzero; opacity: 1;" transform=" matrix(1 0 0 1 0 0) " stroke-linecap="round"/>
	<path d="M 35.797 50.303 c 0.75 1.324 0.707 2.795 -0.103 3.459 l -14.007 9.782 c -1.457 0.85 -3.638 -0.166 -4.886 -2.294 c -1.245 -2.141 -0.992 -4.544 0.435 -5.377 l 15.507 -7.196 C 33.735 48.298 35.033 48.995 35.797 50.303" style="stroke: none; stroke-width: 1; stroke-dasharray: none; stroke-linecap: butt; stroke-linejoin: miter; stroke-miterlimit: 10; fill: rgb(255,194,32); fill-rule: nonzero; opacity: 1;" transform=" matrix(1 0 0 1 0 0) " stroke-linecap="round"/>
</g>
</svg>